<svg xmlns="http://www.w3.org/2000/svg" xmlns:xlink="http://www.w3.org/1999/xlink" xmlns:fi="http://pattern.flaticon.com/" x="0" y="0" width="1920" height="960" viewBox="0 0 1920 960"><rect x="0px" y="0px" width="100%" height="100%" opacity="1" fill="#f1f1f1"/><defs><g transform="matrix(0.053619926754388654 0.03386521937852069 -0.03386521937852069 0.053619926754388654 44.942735783970186 181.60374346216759)" id="L1_0"><path d="M481,371c11.046,0,20-8.954,20-20v-92c0-33.084-26.916-60-60-60h-39v-79c0-44.112-35.888-80-80-80h-47.533     c-7.739-23.749-29.864-40-55.16-40h-25.614c-25.296,0-47.421,16.251-55.16,40H91c-44.112,0-80,35.888-80,80v312     c0,44.112,35.888,80,80,80h88c11.046,0,20-8.954,20-20c0-11.046-8.954-20-20-20H91c-22.056,0-40-17.944-40-40V120     c0-22.056,17.944-40,40-40h2v59c0,11.046,8.954,20,20,20h189c11.046,0,20-8.954,20-20V80c22.056,0,40,17.944,40,40v79h-65.007     C263.914,199,237,225.913,237,258.993v193.015c0,33.08,26.916,59.993,60.01,59.993L441,511.926c33.084,0,60-26.913,60-59.992     c0-11.046-8.954-20-20-20c-11.046,0-20,8.954-20,20c0,11.024-8.972,19.992-20.01,19.992L297,472c-11.028,0-20-8.969-20-19.993     V258.993c0-11.024,8.969-19.993,19.993-19.993H441c11.028,0,20,8.972,20,20v92C461,362.046,469.955,371,481,371z M282,119H133V80     h21c9.177,0,17.177-6.246,19.403-15.149l2.798-11.194C178.211,45.616,185.404,40,193.693,40h25.614     c8.289,0,15.481,5.616,17.492,13.657l2.798,11.194C241.823,73.754,249.823,80,259,80h23V119z" fill="#d6d6d6"/><path d="M401,279h-64c-11.046,0-20,8.954-20,20c0,11.046,8.954,20,20,20h64c11.046,0,20-8.954,20-20     C421,287.954,412.047,279,401,279z" fill="#d6d6d6"/><path d="M401,349h-64c-11.046,0-20,8.954-20,20c0,11.046,8.954,20,20,20h64c11.046,0,20-8.954,20-20     C421,357.954,412.047,349,401,349z" fill="#d6d6d6"/></g><path d="m29.73911 7.63281c-.15201-.33917-.36456-.65254-.62192-.92969-.00001 0-5.82031-5.82031-5.82033-5.82033-.55721-.5572-1.33883-.88279-2.12694-.88279-.00003 0-8.16992 0-8.16992 0-1.6543 0-3 1.3457-3 3v1h-5c-1.6543 0-3 1.3457-3 3v22c0 1.6543 1.3457 3 3 3h14c1.6543 0 3-1.3457 3-3v-1h5c1.6543 0 3-1.3457 3-3 0 0 0-16.16398 0-16.16992 0-.42102-.09392-.82471-.26089-1.19727zm-3.15317-.63281h-2.58594c-.55176 0-1-.44824-1-1v-2.58594zm-6.58594 22c0 .55176-.44824 1-1 1h-14c-.55127 0-1-.44824-1-1v-22c0-.55176.44873-1 1-1h8v4c0 1.6543 1.3457 3 3 3h4zm-1.41406-18h-2.58594c-.55127 0-1-.44824-1-1v-2.58594zm8.41406 15h-5s0-13.16815 0-13.17187c0-.76065-.33329-1.57548-.87891-2.12109 0 0-5.82813-5.82813-5.82813-5.82813-.55544-.55544-1.33629-.87891-2.12157-.87891-.00001 0-1.17139 0-1.17139 0v-1c0-.55176.44873-1 1-1h8v4c0 1.6543 1.3457 3 3 3h4v16c0 .55176-.44824 1-1 1z" transform="matrix(0.6803769540180261 0.4402439113717765 -0.4402439113717765 0.6803769540180261 168.15787131766 90.07006615376315)" id="L1_1" fill="#d6d6d6"/><g transform="matrix(1.060660177555999 -0.7071067787610195 0.7071067787610195 1.060660177555999 15.640349922990758 35.489592258143226)" id="L1_2"><path d="m12 18c-.2 0-.5-.1-.6-.2l-3-2.5c-.4-.4-.5-1-.1-1.4s1-.5 1.4-.1l2.4 2 2.4-2c.4-.4 1.1-.3 1.4.1.4.4.3 1.1-.1 1.4l-3 2.5c-.3.1-.6.2-.8.2z" fill="#d6d6d6"/><path d="m12 18c-.6 0-1-.4-1-1v-6c0-.6.4-1 1-1s1 .4 1 1v6c0 .5-.4 1-1 1z" fill="#d6d6d6"/><path d="m19.3 22h-14.6c-1.5 0-2.7-1.2-2.7-2.7v-12.3c0-.6.4-1 1-1h18c.6 0 1 .4 1 1v12.3c0 1.5-1.2 2.7-2.7 2.7zm-15.3-14v11.3c0 .4.3.7.7.7h14.6c.4 0 .7-.3.7-.8v-11.2z" fill="#d6d6d6"/><path d="m21 8h-18c-.4 0-.7-.2-.9-.6s-.1-.7.1-1l2.7-3.6c.4-.5 1-.8 1.6-.8h11c.6 0 1.2.3 1.6.8l2.7 3.6c.2.3.3.7.1 1-.2.4-.5.6-.9.6zm-16-2h14l-1.5-2h-11z" fill="#d6d6d6"/></g><g transform="matrix(0.046252210093150004 -0.006166961529992419 0.006166961529992419 0.046252210093150004 238.58068919780212 157.7382148348219)" id="L1_3"><path d="M312.461,332.734H199.539c-8.511,0-15.434,6.923-15.434,15.434v34.634c0,8.511,6.923,15.435,15.434,15.435h112.923    c8.511,0,15.435-6.923,15.435-15.435v-34.634C327.895,339.658,320.972,332.734,312.461,332.734z M308.051,378.393H203.948v-25.814    h104.103V378.393z" fill="#d6d6d6"/><path d="M506.976,246.958l0.159-0.08L432.73,99.774c-6.015-11.89-18.025-19.275-31.346-19.275h-14.141V66.824    c0-5.48-4.442-9.922-9.922-9.922H134.68c-5.48,0-9.922,4.442-9.922,9.922v13.675h-14.141c-13.321,0-25.331,7.385-31.346,19.275    L4.865,246.878l0.159,0.08C1.837,252.207,0,258.363,0,264.939v155.409c0,19.162,15.59,34.751,34.752,34.751h442.497    c19.162,0,34.751-15.59,34.751-34.751V264.939C512,258.363,510.163,252.207,506.976,246.958z M387.242,102.548h14.141    c4.959,0,9.43,2.751,11.671,7.179l60.93,120.462h-41.431v-37.066c0-5.48-4.442-9.922-9.922-9.922h-12.275v-53.227    c0-5.48-4.442-9.922-9.922-9.922h-13.192V102.548z M412.71,203.044v27.144h-52.359c-8.984,0-17.174,5.293-20.865,13.482    l-14.296,31.71c-0.136,0.299-0.435,0.493-0.764,0.493H187.575c-0.329,0-0.628-0.194-0.764-0.494l-14.295-31.708    c-3.692-8.19-11.882-13.483-20.866-13.483H99.291v-27.144H412.71z M144.602,76.746h222.796v43.305H144.602V76.746z     M390.512,139.895v43.305H121.488v-43.305H390.512z M98.946,109.727c2.24-4.429,6.712-7.179,11.671-7.179h14.141v17.503h-13.192    c-5.48,0-9.922,4.442-9.922,9.922v53.227H89.369c-5.48,0-9.922,4.442-9.922,9.922v37.066H38.016L98.946,109.727z M477.249,433.049    H34.752c-7.004,0-12.703-5.699-12.703-12.701V264.939c0-7.003,5.698-12.701,12.703-12.701H151.65c0.328,0,0.629,0.194,0.765,0.495    l14.295,31.708c3.692,8.19,11.881,13.481,20.865,13.481h136.85c8.984,0,17.174-5.292,20.865-13.48l14.296-31.709v-0.001    c0.136-0.3,0.435-0.494,0.764-0.494h116.898c7.004,0,12.701,5.699,12.701,12.701v155.409h0.001    C489.951,427.352,484.253,433.049,477.249,433.049z" fill="#d6d6d6"/></g><path d="m298.8 329c-77.6 2.6-89.5-161.4-143.6-57.1-22.8 48.1-80.3 74.6-124 33.9-14.6-13.8-31.4-34.8-31.2-55.9-.2-23.7 34.1-33 46.5-13.2 6.3 10.5 13 22.2 21.8 30.1 38.7 32.2 43.4-84.3 119.5-83.8 31-1.1 61.2 25.7 76.2 50.8 6.2 6.4 27.8 49.7 39 39.9 12.8-12 23.2-27.6 33.7-42.1 23.5-30.9 69.7-34.1 97.1-6.8 6.5 6.3 11.4 13.6 16.9 20.4 2 2.4 5.5 2.7 7.9.8.5-.4.9-.9 1.2-1.4 8.8-14.1 20.6-24 38.7-14.7 34.7 22.5-4.9 70.8-34.6 75.1-22.1 3-40.5-6.9-55.7-26.6-5.1-6.2-8.9-16.6-17.1-18.1-19.2-7.7-34.3 68.1-92.3 68.7z" transform="matrix(0.04520624888969082 0.017387019528424613 -0.017387019528424613 0.04520624888969082 182.17410299261465 205.06088261499494)" id="L1_4" fill="#d6d6d6"/><path d="M492.654,382.025l-187.52-325.12c-5.533-9.957-13.742-18.167-23.699-23.699c-29.455-16.366-66.601-5.756-82.967,23.699    L8.174,386.719C2.808,396.014-0.012,406.56,0,417.293c0.037,33.697,27.384,60.983,61.081,60.946h380.587l1.707-0.213    c33.364-0.35,60.259-27.435,60.373-60.8C503.933,404.604,500.043,392.26,492.654,382.025z" transform="matrix(0.041895298895905306 -0.008379059957676096 0.008379059957676096 0.041895298895905306 176.34412668364553 289.2214002525419)" id="L1_5" fill="#d6d6d6"/><path d="M170.667,0C76.41,0,0,76.41,0,170.667s76.41,170.667,170.667,170.667s170.667-76.41,170.667-170.667S264.923,0,170.667,0z     M170.667,298.667c-70.692,0-128-57.308-128-128s57.308-128,128-128s128,57.308,128,128S241.359,298.667,170.667,298.667z" transform="matrix(0.0497670459904409 0.016589014504599087 -0.016589014504599087 0.0497670459904409 272.31387924443976 19.657025298371487)" id="L1_6" fill="#d6d6d6"/><path d="m11.5 2.5v-2a.5.5 0 0 1 1 0v2a.5.5 0 0 1 -1 0zm0 21a.5.5 0 0 0 1 0v-2a.5.5 0 0 0 -1 0zm12-12h-2a.5.5 0 0 0 0 1h2a.5.5 0 0 0 0-1zm-21 1a.5.5 0 0 0 0-1h-2a.5.5 0 0 0 0 1zm15.864 6.571 1.414 1.414a.5.5 0 0 0 .707-.707l-1.414-1.414a.5.5 0 0 0 -.707.707zm-13.435-13.435a.5.5 0 1 0 .707-.707l-1.414-1.414a.5.5 0 1 0 -.707.707zm13.788.146a.5.5 0 0 0 .354-.146l1.414-1.414a.5.5 0 1 0 -.707-.707l-1.414 1.414a.5.5 0 0 0 .353.853zm-15.2 14.7a.5.5 0 0 0 .707 0l1.414-1.414a.5.5 0 1 0 -.707-.707l-1.416 1.417a.5.5 0 0 0 0 .707z" transform="matrix(1.2374369074810365 0.35355339206309666 -0.35355339206309666 1.2374369074810365 331.3933978149847 247.9081164054704)" id="L1_8" fill="#d6d6d6"/><g transform="matrix(0.04834023118019104 0 0 0.04834023118019104 -0.35726288706064224 98.64273711293936)" id="L1_10"><path d="M347.878,151.357c-4-4.003-11.083-4.003-15.083,0L129.909,354.414c-2.427,2.429-3.531,5.87-2.99,9.258     c0.552,3.388,2.698,6.307,5.76,7.84l16.656,8.34v28.049l-51.031,14.602l-51.51-51.554l14.59-51.075h28.025l8.333,16.67     c1.531,3.065,4.448,5.213,7.833,5.765c0.573,0.094,1.146,0.135,1.708,0.135c2.802,0,5.531-1.105,7.542-3.128L317.711,136.26     c2-2.002,3.125-4.712,3.125-7.548c0-2.836-1.125-5.546-3.125-7.548l-39.229-39.263c-2-2.002-4.708-3.128-7.542-3.128h-0.021     c-2.844,0.01-5.563,1.147-7.552,3.159L45.763,301.682c-0.105,0.107-0.1,0.27-0.201,0.379c-1.095,1.183-2.009,2.549-2.487,4.208     l-18.521,64.857L0.409,455.73c-1.063,3.722-0.021,7.736,2.719,10.478c2.031,2.033,4.75,3.128,7.542,3.128     c0.979,0,1.958-0.136,2.927-0.407l84.531-24.166l64.802-18.537c0.195-0.056,0.329-0.203,0.52-0.27     c0.673-0.232,1.262-0.61,1.881-0.976c0.608-0.361,1.216-0.682,1.73-1.146c0.138-0.122,0.319-0.167,0.452-0.298l219.563-217.789     c2.01-1.991,3.146-4.712,3.156-7.558c0.01-2.836-1.115-5.557-3.125-7.569L347.878,151.357z" fill="#d6d6d6"/><path d="M456.836,76.168l-64-64.054c-16.125-16.139-44.177-16.17-60.365,0.031l-39.073,39.461     c-4.135,4.181-4.125,10.905,0.031,15.065l108.896,108.988c2.083,2.085,4.813,3.128,7.542,3.128c2.719,0,5.427-1.032,7.51-3.096     l39.458-39.137c8.063-8.069,12.5-18.787,12.5-30.192S464.899,84.237,456.836,76.168z" fill="#d6d6d6"/></g></defs><g fi:class="KUsePattern"><pattern id="pattern_L1_0" width="350" height="350" patternUnits="userSpaceOnUse"><use xlink:href="#L1_0" x="-350" y="-350"/><use xlink:href="#L1_0" x="0" y="-350"/><use xlink:href="#L1_0" x="350" y="-350"/><use xlink:href="#L1_0" x="-350" y="0"/><use xlink:href="#L1_0" x="0" y="0"/><use xlink:href="#L1_0" x="350" y="0"/><use xlink:href="#L1_0" x="-350" y="350"/><use xlink:href="#L1_0" x="0" y="350"/><use xlink:href="#L1_0" x="350" y="350"/></pattern><rect x="0" y="0" width="100%" height="100%" fill="url(#pattern_L1_0)"/></g><g fi:class="KUsePattern"><pattern id="pattern_L1_1" width="350" height="350" patternUnits="userSpaceOnUse"><use xlink:href="#L1_1" x="-350" y="-350"/><use xlink:href="#L1_1" x="0" y="-350"/><use xlink:href="#L1_1" x="350" y="-350"/><use xlink:href="#L1_1" x="-350" y="0"/><use xlink:href="#L1_1" x="0" y="0"/><use xlink:href="#L1_1" x="350" y="0"/><use xlink:href="#L1_1" x="-350" y="350"/><use xlink:href="#L1_1" x="0" y="350"/><use xlink:href="#L1_1" x="350" y="350"/></pattern><rect x="0" y="0" width="100%" height="100%" fill="url(#pattern_L1_1)"/></g><g fi:class="KUsePattern"><pattern id="pattern_L1_2" width="350" height="350" patternUnits="userSpaceOnUse"><use xlink:href="#L1_2" x="-350" y="-350"/><use xlink:href="#L1_2" x="0" y="-350"/><use xlink:href="#L1_2" x="350" y="-350"/><use xlink:href="#L1_2" x="-350" y="0"/><use xlink:href="#L1_2" x="0" y="0"/><use xlink:href="#L1_2" x="350" y="0"/><use xlink:href="#L1_2" x="-350" y="350"/><use xlink:href="#L1_2" x="0" y="350"/><use xlink:href="#L1_2" x="350" y="350"/></pattern><rect x="0" y="0" width="100%" height="100%" fill="url(#pattern_L1_2)"/></g><g fi:class="KUsePattern"><pattern id="pattern_L1_3" width="350" height="350" patternUnits="userSpaceOnUse"><use xlink:href="#L1_3" x="-350" y="-350"/><use xlink:href="#L1_3" x="0" y="-350"/><use xlink:href="#L1_3" x="350" y="-350"/><use xlink:href="#L1_3" x="-350" y="0"/><use xlink:href="#L1_3" x="0" y="0"/><use xlink:href="#L1_3" x="350" y="0"/><use xlink:href="#L1_3" x="-350" y="350"/><use xlink:href="#L1_3" x="0" y="350"/><use xlink:href="#L1_3" x="350" y="350"/></pattern><rect x="0" y="0" width="100%" height="100%" fill="url(#pattern_L1_3)"/></g><g fi:class="KUsePattern"><pattern id="pattern_L1_4" width="350" height="350" patternUnits="userSpaceOnUse"><use xlink:href="#L1_4" x="-350" y="-350"/><use xlink:href="#L1_4" x="0" y="-350"/><use xlink:href="#L1_4" x="350" y="-350"/><use xlink:href="#L1_4" x="-350" y="0"/><use xlink:href="#L1_4" x="0" y="0"/><use xlink:href="#L1_4" x="350" y="0"/><use xlink:href="#L1_4" x="-350" y="350"/><use xlink:href="#L1_4" x="0" y="350"/><use xlink:href="#L1_4" x="350" y="350"/></pattern><rect x="0" y="0" width="100%" height="100%" fill="url(#pattern_L1_4)"/></g><g fi:class="KUsePattern"><pattern id="pattern_L1_5" width="350" height="350" patternUnits="userSpaceOnUse"><use xlink:href="#L1_5" x="-350" y="-350"/><use xlink:href="#L1_5" x="0" y="-350"/><use xlink:href="#L1_5" x="350" y="-350"/><use xlink:href="#L1_5" x="-350" y="0"/><use xlink:href="#L1_5" x="0" y="0"/><use xlink:href="#L1_5" x="350" y="0"/><use xlink:href="#L1_5" x="-350" y="350"/><use xlink:href="#L1_5" x="0" y="350"/><use xlink:href="#L1_5" x="350" y="350"/></pattern><rect x="0" y="0" width="100%" height="100%" fill="url(#pattern_L1_5)"/></g><g fi:class="KUsePattern"><pattern id="pattern_L1_6" width="350" height="350" patternUnits="userSpaceOnUse"><use xlink:href="#L1_6" x="-350" y="-350"/><use xlink:href="#L1_6" x="0" y="-350"/><use xlink:href="#L1_6" x="350" y="-350"/><use xlink:href="#L1_6" x="-350" y="0"/><use xlink:href="#L1_6" x="0" y="0"/><use xlink:href="#L1_6" x="350" y="0"/><use xlink:href="#L1_6" x="-350" y="350"/><use xlink:href="#L1_6" x="0" y="350"/><use xlink:href="#L1_6" x="350" y="350"/></pattern><rect x="0" y="0" width="100%" height="100%" fill="url(#pattern_L1_6)"/></g><g fi:class="KUsePattern"><pattern id="pattern_L1_8" width="350" height="350" patternUnits="userSpaceOnUse"><use xlink:href="#L1_8" x="-350" y="-350"/><use xlink:href="#L1_8" x="0" y="-350"/><use xlink:href="#L1_8" x="350" y="-350"/><use xlink:href="#L1_8" x="-350" y="0"/><use xlink:href="#L1_8" x="0" y="0"/><use xlink:href="#L1_8" x="350" y="0"/><use xlink:href="#L1_8" x="-350" y="350"/><use xlink:href="#L1_8" x="0" y="350"/><use xlink:href="#L1_8" x="350" y="350"/></pattern><rect x="0" y="0" width="100%" height="100%" fill="url(#pattern_L1_8)"/></g><g fi:class="KUsePattern"><pattern id="pattern_L1_10" width="350" height="350" patternUnits="userSpaceOnUse"><use xlink:href="#L1_10" x="-350" y="-350"/><use xlink:href="#L1_10" x="0" y="-350"/><use xlink:href="#L1_10" x="350" y="-350"/><use xlink:href="#L1_10" x="-350" y="0"/><use xlink:href="#L1_10" x="0" y="0"/><use xlink:href="#L1_10" x="350" y="0"/><use xlink:href="#L1_10" x="-350" y="350"/><use xlink:href="#L1_10" x="0" y="350"/><use xlink:href="#L1_10" x="350" y="350"/></pattern><rect x="0" y="0" width="100%" height="100%" fill="url(#pattern_L1_10)"/></g></svg>